<svg width="30" height="29" viewBox="0 0 30 29" fill="none" xmlns="http://www.w3.org/2000/svg">
<path d="M6.5958 2.83535C6.8796 2.00015 7.1424 1.15835 7.4406 0.328551C7.6254 0.404151 7.6692 0.614151 7.7592 0.772551C10.0836 5.42735 12.4116 10.081 14.7354 14.7364C14.787 14.8432 14.8584 14.938 14.9346 15.0286C15.0552 14.8954 15.1392 14.7358 15.2154 14.5744C17.4924 10.0144 19.7706 5.45495 22.05 0.895551C22.1526 0.702351 22.2252 0.488151 22.3758 0.324951C22.4592 0.391551 22.494 0.494151 22.5276 0.591351C24.5814 6.77435 26.6442 12.9544 28.7034 19.1356C29.0064 20.104 29.3322 21.0652 29.6538 22.0276C29.7144 22.2064 29.7888 22.3804 29.865 22.5526C28.6956 23.1406 27.5628 23.7994 26.4678 24.5158C25.524 25.1296 24.6306 25.8196 23.8038 26.5834C23.7294 26.5 23.6694 26.4046 23.6502 26.2936C22.944 23.476 22.23 20.6602 21.5214 17.8426C21.3972 17.3938 21.3174 16.9312 21.1584 16.4926C21.096 16.5496 21.033 16.6084 20.9964 16.6864C19.1088 20.4634 17.2224 24.2422 15.3336 28.0192C15.219 28.2346 15.1326 28.468 14.988 28.666C14.859 28.7122 14.8206 28.5712 14.7684 28.4866C12.8634 24.6748 10.9602 20.8624 9.0546 17.0506C8.9604 16.87 8.8878 16.6744 8.7582 16.5148C8.6598 16.5454 8.652 16.6576 8.6238 16.7404C7.8486 19.8406 7.0596 22.9372 6.2838 26.0374C6.2328 26.2264 6.21 26.4376 6.066 26.5846C4.5492 25.165 2.7744 24.0586 0.966 23.0524C0.6486 22.8688 0.3036 22.7356 0 22.528C0.534 21.025 1.0104 19.5016 1.5264 17.9914C1.9866 16.7325 2.3832 15.4522 2.8158 14.1838C4.0758 10.4008 5.3388 6.61895 6.5958 2.83535Z" fill="#474646"/>
</svg>
