<svg width="20" height="20" viewBox="0 0 20 20" fill="none" xmlns="http://www.w3.org/2000/svg">
<path d="M7.91667 1.66666C9.06944 1.66666 10.1528 1.88527 11.1667 2.32249C12.1806 2.76027 13.0625 3.35416 13.8125 4.10416C14.5625 4.85416 15.1561 5.7361 15.5933 6.74999C16.0311 7.76388 16.25 8.84721 16.25 9.99999C16.25 11.1528 16.0311 12.2361 15.5933 13.25C15.1561 14.2639 14.5625 15.1458 13.8125 15.8958C13.0625 16.6458 12.1806 17.2394 11.1667 17.6767C10.1528 18.1144 9.06944 18.3333 7.91667 18.3333C7.18056 18.3333 6.46194 18.2397 5.76083 18.0525C5.05917 17.8647 4.38889 17.5833 3.75 17.2083C5.04167 16.4583 6.05889 15.4444 6.80167 14.1667C7.545 12.8889 7.91667 11.5 7.91667 9.99999C7.91667 8.49999 7.545 7.1111 6.80167 5.83332C6.05889 4.55555 5.04167 3.54166 3.75 2.79166C4.38889 2.41666 5.05917 2.13527 5.76083 1.94749C6.46194 1.76027 7.18056 1.66666 7.91667 1.66666Z" fill="white"/>
</svg>
