<svg width="20" height="20" viewBox="0 0 20 20" fill="none" xmlns="http://www.w3.org/2000/svg">
<path d="M10 7.50311C10.4945 7.50311 10.9778 7.64974 11.3889 7.92444C11.8 8.19914 12.1205 8.58959 12.3097 9.0464C12.4989 9.50322 12.5484 10.0059 12.452 10.4908C12.3555 10.9758 12.1174 11.4212 11.7678 11.7709C11.4181 12.1205 10.9727 12.3586 10.4877 12.4551C10.0028 12.5515 9.50011 12.502 9.04329 12.3128C8.58648 12.1236 8.19603 11.8032 7.92133 11.392C7.64662 10.9809 7.5 10.4976 7.5 10.0031C7.50083 9.34032 7.76448 8.70492 8.23315 8.23626C8.70181 7.7676 9.33721 7.50394 10 7.50311ZM10 6.25311C9.25832 6.25311 8.5333 6.47305 7.91661 6.8851C7.29993 7.29716 6.81928 7.88283 6.53545 8.56805C6.25162 9.25327 6.17736 10.0073 6.32206 10.7347C6.46675 11.4621 6.8239 12.1303 7.34835 12.6548C7.8728 13.1792 8.54098 13.5364 9.26841 13.6811C9.99584 13.8258 10.7498 13.7515 11.4351 13.4677C12.1203 13.1838 12.706 12.7032 13.118 12.0865C13.5301 11.4698 13.75 10.7448 13.75 10.0031C13.75 9.00855 13.3549 8.05472 12.6517 7.35146C11.9484 6.6482 10.9946 6.25311 10 6.25311ZM3.37125 4.25811L4.25625 3.37436L6.44687 5.56561L5.5625 6.44936L3.37125 4.25811ZM1.25 9.37811H4.375V10.6281H1.25V9.37811ZM3.37125 15.7487L5.5625 13.5575L6.44625 14.4412L4.25563 16.6325L3.37125 15.7487ZM9.375 15.6281H10.625V18.7531H9.375V15.6281ZM13.5544 14.4406L14.4381 13.5569L16.6294 15.7481L15.7456 16.6319L13.5544 14.4406ZM15.625 9.37811H18.75V10.6281H15.625V9.37811ZM13.5544 5.56499L15.7456 3.37374L16.6294 4.25749L14.4381 6.44874L13.5544 5.56499ZM9.375 1.25311H10.625V4.37811H9.375V1.25311Z" fill="white"/>
</svg>
