<svg width="32" height="32" viewBox="0 0 32 32" fill="none" xmlns="http://www.w3.org/2000/svg">
<path d="M7.99984 18.6665H18.6665V15.9998H7.99984V18.6665ZM7.99984 14.6665H23.9998V11.9998H7.99984V14.6665ZM7.99984 10.6665H23.9998V7.99984H7.99984V10.6665ZM2.6665 29.3332V5.33317C2.6665 4.59984 2.92784 3.97184 3.4505 3.44917C3.97228 2.92739 4.59984 2.6665 5.33317 2.6665H26.6665C27.3998 2.6665 28.0278 2.92739 28.5505 3.44917C29.0723 3.97184 29.3332 4.59984 29.3332 5.33317V21.3332C29.3332 22.0665 29.0723 22.6945 28.5505 23.2172C28.0278 23.7389 27.3998 23.9998 26.6665 23.9998H7.99984L2.6665 29.3332Z" fill="#474646"/>
</svg>
